<svg width="472" height="152" xmlns="http://www.w3.org/2000/svg" xmlns:xlink="http://www.w3.org/1999/xlink"><defs><rect id="a" x="0" y="0" width="96" height="96" rx="3"/><circle id="b" cx="16" cy="16" r="16"/><path id="d" d="M0 0h24v16H0z"/><path id="f" d="M14 8l14 10-2 1L12 9-2 19l-2-1L10 8-4-2l2-1L12 7 26-3l2 1z"/><path d="M13 7h15v2H13v9h-2V9H-4V7h15v-9h2v9z" id="g"/><rect id="h" x="0" y="0" width="96" height="96" rx="3"/><circle id="i" cx="16" cy="16" r="16"/><path id="k" d="M0 0h48v32H0z"/><circle id="m" cx="16" cy="16" r="16"/><path id="o" d="M0 0h38v26H0z"/><rect id="q" x="0" y="0" width="96" height="96" rx="3"/><circle id="r" cx="16" cy="16" r="16"/><path id="t" d="M0 0h48v32H0z"/><path id="v" d="M26 16l24 16-2 2-24-16L0 34l-2-2 24-16L0 0l2-2 22 16L48-2l2 2z"/><path d="M26 14h22v4H26v14h-4V18H0v-4h22V0h4v14z" id="w"/></defs><g fill="none" fill-rule="evenodd"><g transform="translate(0 26)"><use fill="#2E4369" xlink:href="#a"/><rect stroke="#2E4369" x=".5" y=".5" width="95" height="95" rx="3"/></g><g transform="translate(32 42)"><mask id="c" fill="#fff"><use xlink:href="#b"/></mask><g mask="url(#c)"><path fill="#00207F" d="M-8 0h48v32H-8z"/><g transform="translate(-8)"><mask id="e" fill="#fff"><use xlink:href="#d"/></mask><use fill="#00207F" xlink:href="#d"/><g mask="url(#e)" transform="matrix(-1 0 0 1 24 0)"><use fill="#D10D24" xlink:href="#f"/><path stroke="#FFF" stroke-width=".5" d="M14.43 8l14.053 10.038-2.506 1.253L12 9.307l-13.977 9.984-2.506-1.253L9.57 8-4.483-2.038l2.506-1.253L12 6.693l13.977-9.984 2.506 1.253L14.43 8z"/></g><g mask="url(#e)"><use fill="#D10D24" xlink:href="#g"/><path stroke="#FFF" stroke-width=".5" d="M13.25 6.75h15v2.5h-15v9h-2.5v-9h-15v-2.5h15v-9h2.5v9z"/></g></g><path d="M28 25l-.868.802.086-1.179-1.168-.178.975-.668-.589-1.024 1.13.346L28 22l.434 1.099 1.13-.346-.59 1.024.976.668-1.168.178.086 1.179L28 25zm3-7.5l-.588.309.112-.654-.475-.464.657-.096L31 16l.294.595.657.096-.475.464.112.654L31 17.5zm3-4.5l-.868.802.086-1.179-1.168-.178.975-.668-.589-1.024 1.13.346L34 10l.434 1.099 1.13-.346-.59 1.024.976.668-1.168.178.086 1.179L34 13zm-12 2l-.868.802.086-1.179-1.168-.178.975-.668-.589-1.024 1.13.346L22 12l.434 1.099 1.13-.346-.59 1.024.976.668-1.168.178.086 1.179L22 15zm6-8l-.868.802.086-1.179-1.168-.178.975-.668-.589-1.024 1.13.346L28 4l.434 1.099 1.13-.346-.59 1.024.976.668-1.168.178.086 1.179L28 7zM4 26l-1.736 1.604.172-2.357L.1 24.89l1.95-1.335-1.177-2.049 2.26.692L4 20l.868 2.198 2.26-.692-1.178 2.049L7.9 24.89l-2.336.357.172 2.357L4 26z" fill="#FFF"/></g></g><path d="M39.824 100l-.864-2.448h-4.64L33.472 100h-2.016l4.24-11.36h1.888L41.84 100h-2.016zm-4.912-4.112h3.472l-1.728-4.928h-.032l-1.712 4.928zm12.496 4.24c-1.365 0-2.459-.424-3.28-1.272-.821-.848-1.232-2.024-1.232-3.528V88.64h1.92v6.544c0 .928.232 1.68.696 2.256.464.576 1.096.864 1.896.864.779 0 1.408-.28 1.888-.84.48-.56.72-1.32.72-2.28V88.64h1.936v6.688c0 1.483-.405 2.653-1.216 3.512-.81.859-1.92 1.288-3.328 1.288zM54.56 100V88.64h3.616c1.781 0 3.21.525 4.288 1.576 1.077 1.05 1.616 2.424 1.616 4.12 0 1.696-.525 3.064-1.576 4.104-1.05 1.04-2.477 1.56-4.28 1.56H54.56zm1.936-1.728h1.616c1.184 0 2.141-.37 2.872-1.112.73-.741 1.096-1.683 1.096-2.824 0-1.152-.36-2.101-1.08-2.848-.72-.747-1.65-1.12-2.792-1.12h-1.712v7.904z" fill="#FFF"/><g transform="translate(376 26)"><use fill="#2E4369" xlink:href="#h"/><rect stroke="#2E4369" x=".5" y=".5" width="95" height="95" rx="3"/></g><g transform="translate(408 42)"><mask id="j" fill="#fff"><use xlink:href="#i"/></mask><g mask="url(#j)"><g transform="translate(-8)"><mask id="l" fill="#fff"><use xlink:href="#k"/></mask><use fill="#C1012B" xlink:href="#k"/><path fill="#00256A" mask="url(#l)" d="M0 0h24v18H0z"/><path d="M24 2h24v2H24V2zm0 4h24v2H24V6zm0 4h24v2H24v-2zm0 4h24v2H24v-2zM0 18h48v2H0v-2zm0 4h48v2H0v-2zm0 4h48v2H0v-2zm0 4h48v2H0v-2zM3 4a1 1 0 1 1 0-2 1 1 0 0 1 0 2zm4 0a1 1 0 1 1 0-2 1 1 0 0 1 0 2zm4 0a1 1 0 1 1 0-2 1 1 0 0 1 0 2zm4 0a1 1 0 1 1 0-2 1 1 0 0 1 0 2zm4 0a1 1 0 1 1 0-2 1 1 0 0 1 0 2zm-2 4a1 1 0 1 1 0-2 1 1 0 0 1 0 2zm0 8a1 1 0 1 1 0-2 1 1 0 0 1 0 2zm-4-8a1 1 0 1 1 0-2 1 1 0 0 1 0 2zm0 8a1 1 0 1 1 0-2 1 1 0 0 1 0 2zm8-8a1 1 0 1 1 0-2 1 1 0 0 1 0 2zm0 8a1 1 0 1 1 0-2 1 1 0 0 1 0 2zM9 8a1 1 0 1 1 0-2 1 1 0 0 1 0 2zm0 8a1 1 0 1 1 0-2 1 1 0 0 1 0 2zM5 8a1 1 0 1 1 0-2 1 1 0 0 1 0 2zm0 8a1 1 0 1 1 0-2 1 1 0 0 1 0 2zm-2-4a1 1 0 1 1 0-2 1 1 0 0 1 0 2zm4 0a1 1 0 1 1 0-2 1 1 0 0 1 0 2zm4 0a1 1 0 1 1 0-2 1 1 0 0 1 0 2zm4 0a1 1 0 1 1 0-2 1 1 0 0 1 0 2zm4 0a1 1 0 1 1 0-2 1 1 0 0 1 0 2z" fill="#FFF" mask="url(#l)"/></g></g></g><path d="M413.876 100.128c-1.365 0-2.459-.424-3.28-1.272-.821-.848-1.232-2.024-1.232-3.528V88.64h1.92v6.544c0 .928.232 1.68.696 2.256.464.576 1.096.864 1.896.864.779 0 1.408-.28 1.888-.84.48-.56.72-1.32.72-2.28V88.64h1.936v6.688c0 1.483-.405 2.653-1.216 3.512-.81.859-1.92 1.288-3.328 1.288zm10.544 0c-1.59 0-2.96-.597-4.112-1.792l1.216-1.488c.395.48.85.848 1.368 1.104a3.457 3.457 0 0 0 1.544.384c.608 0 1.075-.123 1.4-.368.325-.245.488-.581.488-1.008 0-.459-.16-.805-.48-1.04-.32-.235-.89-.496-1.712-.784a11.585 11.585 0 0 1-1.288-.52 7.344 7.344 0 0 1-1.056-.648 2.548 2.548 0 0 1-.824-.968c-.181-.379-.272-.819-.272-1.32 0-.885.352-1.635 1.056-2.248.704-.613 1.552-.92 2.544-.92 1.312-.01 2.565.453 3.76 1.392l-1.152 1.52c-.939-.779-1.808-1.168-2.608-1.168-.459 0-.837.117-1.136.352-.299.235-.453.56-.464.976 0 .203.037.376.112.52.075.144.227.285.456.424.23.139.437.248.624.328.187.08.499.205.936.376 1.173.459 1.947.816 2.32 1.072.8.565 1.2 1.37 1.2 2.416 0 1.088-.397 1.928-1.192 2.52-.795.592-1.704.888-2.728.888zm6.064-.128V88.64h3.616c1.781 0 3.21.525 4.288 1.576 1.077 1.05 1.616 2.424 1.616 4.12 0 1.696-.525 3.064-1.576 4.104-1.05 1.04-2.477 1.56-4.28 1.56h-3.664zm1.936-1.728h1.616c1.184 0 2.141-.37 2.872-1.112.73-.741 1.096-1.683 1.096-2.824 0-1.152-.36-2.101-1.08-2.848-.72-.747-1.65-1.12-2.792-1.12h-1.712v7.904z" fill="#FFF"/><g transform="translate(104)"><rect fill="#FFF" width="160" height="152" rx="3"/><path fill="#E2E6E8" d="M54.174 104H144l-3.174 8H51zm-28.996 16H137l-3.178 8H22zm-6.036-16H45l-3.142 8H16z"/><path d="M3 0h154a3 3 0 0 1 3 3v53H0V3a3 3 0 0 1 3-3z" fill="#2E4369"/><path d="M60.32 33v-1.856h-4.8V29.88l5.104-7.872h1.552v7.488h1.52v1.648h-1.52V33H60.32zm-2.64-3.456h2.704v-4.4l-2.704 4.4zm11.552 3.584c-1.27 0-2.29-.499-3.064-1.496-.773-.997-1.16-2.37-1.16-4.12 0-1.685.379-3.043 1.136-4.072.757-1.03 1.787-1.544 3.088-1.544 1.27 0 2.29.496 3.064 1.488.773.992 1.16 2.368 1.16 4.128 0 1.685-.376 3.043-1.128 4.072-.752 1.03-1.784 1.544-3.096 1.544zm0-1.728c.736 0 1.31-.341 1.72-1.024.41-.683.616-1.637.616-2.864 0-1.227-.208-2.184-.624-2.872-.416-.688-.987-1.032-1.712-1.032s-1.296.344-1.712 1.032c-.416.688-.624 1.645-.624 2.872 0 1.205.21 2.155.632 2.848.421.693.99 1.04 1.704 1.04zm10.112 1.728c-1.27 0-2.29-.499-3.064-1.496-.773-.997-1.16-2.37-1.16-4.12 0-1.685.379-3.043 1.136-4.072.757-1.03 1.787-1.544 3.088-1.544 1.27 0 2.29.496 3.064 1.488.773.992 1.16 2.368 1.16 4.128 0 1.685-.376 3.043-1.128 4.072-.752 1.03-1.784 1.544-3.096 1.544zm0-1.728c.736 0 1.31-.341 1.72-1.024.41-.683.616-1.637.616-2.864 0-1.227-.208-2.184-.624-2.872-.416-.688-.987-1.032-1.712-1.032s-1.296.344-1.712 1.032c-.416.688-.624 1.645-.624 2.872 0 1.205.21 2.155.632 2.848.421.693.99 1.04 1.704 1.04zm7.216 1.728a1.19 1.19 0 0 1-.864-.344 1.13 1.13 0 0 1-.352-.84c0-.33.12-.613.36-.848s.525-.352.856-.352c.33 0 .613.117.848.352s.352.517.352.848c0 .33-.117.61-.352.84a1.17 1.17 0 0 1-.848.344zm7.216 0c-1.27 0-2.29-.499-3.064-1.496-.773-.997-1.16-2.37-1.16-4.12 0-1.685.379-3.043 1.136-4.072.757-1.03 1.787-1.544 3.088-1.544 1.27 0 2.29.496 3.064 1.488.773.992 1.16 2.368 1.16 4.128 0 1.685-.376 3.043-1.128 4.072-.752 1.03-1.784 1.544-3.096 1.544zm0-1.728c.736 0 1.31-.341 1.72-1.024.41-.683.616-1.637.616-2.864 0-1.227-.208-2.184-.624-2.872-.416-.688-.987-1.032-1.712-1.032s-1.296.344-1.712 1.032c-.416.688-.624 1.645-.624 2.872 0 1.205.21 2.155.632 2.848.421.693.99 1.04 1.704 1.04zm10.112 1.728c-1.27 0-2.29-.499-3.064-1.496-.773-.997-1.16-2.37-1.16-4.12 0-1.685.379-3.043 1.136-4.072.757-1.03 1.787-1.544 3.088-1.544 1.27 0 2.29.496 3.064 1.488.773.992 1.16 2.368 1.16 4.128 0 1.685-.376 3.043-1.128 4.072-.752 1.03-1.784 1.544-3.096 1.544zm0-1.728c.736 0 1.31-.341 1.72-1.024.41-.683.616-1.637.616-2.864 0-1.227-.208-2.184-.624-2.872-.416-.688-.987-1.032-1.712-1.032s-1.296.344-1.712 1.032c-.416.688-.624 1.645-.624 2.872 0 1.205.21 2.155.632 2.848.421.693.99 1.04 1.704 1.04zm10.736 1.6V21.64h7.152v1.728h-5.216v3.136h4.208v1.728h-4.208v3.04h5.552V33h-7.488zm14.064.128c-1.365 0-2.459-.424-3.28-1.272-.821-.848-1.232-2.024-1.232-3.528V21.64h1.92v6.544c0 .928.232 1.68.696 2.256.464.576 1.096.864 1.896.864.779 0 1.408-.28 1.888-.84.48-.56.72-1.32.72-2.28V21.64h1.936v6.688c0 1.483-.405 2.653-1.216 3.512-.81.859-1.92 1.288-3.328 1.288zM144.336 33h-2.32l-2.72-4.048h-1.52V33h-1.936V21.64h4.192c1.301 0 2.275.336 2.92 1.008.645.672.968 1.563.968 2.672 0 1.813-.832 2.955-2.496 3.424v.048L144.336 33zm-6.56-9.632v3.84h1.84c.747 0 1.317-.173 1.712-.52.395-.347.592-.813.592-1.4 0-.608-.19-1.08-.568-1.416-.379-.336-.915-.504-1.608-.504h-1.968z" fill="#FFF"/><g transform="translate(15 12)"><mask id="n" fill="#fff"><use xlink:href="#m"/></mask><use fill="#0053A7" xlink:href="#m"/><g mask="url(#n)"><g transform="translate(-3 3)"><mask id="p" fill="#fff"><use xlink:href="#o"/></mask><use fill="#0053A7" xlink:href="#o"/><path d="M12.667 14.625L14.25 13l-1.583-1.625L11.083 13l1.584 1.625zM14.25 9.75l1.583-1.625L14.25 6.5l-1.583 1.625L14.25 9.75zm0 9.75l1.583-1.625-1.583-1.625-1.583 1.625L14.25 19.5zm9.5 0l1.583-1.625-1.583-1.625-1.583 1.625L23.75 19.5zm0-9.75l1.583-1.625L23.75 6.5l-1.583 1.625L23.75 9.75zm1.583 4.875L26.917 13l-1.584-1.625L23.75 13l1.583 1.625zM19 21.125l1.583-1.625L19 17.875 17.417 19.5 19 21.125zm0-13L20.583 6.5 19 4.875 17.417 6.5 19 8.125z" fill="#FFF400" mask="url(#p)"/></g></g></g><path d="M32.116 88v-7.56H29.56v-.96h6.168v.96H33.16V88h-1.044zm7.812-5.916c.12 0 .2.004.24.012v1.08a4.77 4.77 0 0 0-.384-.024c-.544 0-.976.188-1.296.564-.32.376-.48.864-.48 1.464V88h-.972v-5.844h.972v1.032h.012c.456-.736 1.092-1.104 1.908-1.104zm3.576 0c1.472 0 2.208.816 2.208 2.448V88H44.8l-.036-.708h-.024c-.504.52-1.128.78-1.872.78-.64 0-1.128-.166-1.464-.498-.336-.332-.504-.762-.504-1.29 0-.568.188-1.012.564-1.332.376-.32.936-.484 1.68-.492h1.596c-.032-.984-.468-1.476-1.308-1.476-.592 0-1.156.144-1.692.432l-.384-.78c.624-.368 1.34-.552 2.148-.552zm-.444 5.1c.472 0 .87-.122 1.194-.366.324-.244.486-.506.486-.786v-.756l-1.5.012c-.904 0-1.356.32-1.356.96 0 .272.1.496.3.672.2.176.492.264.876.264zm7.452-5.1c.648 0 1.16.206 1.536.618.376.412.564 1.022.564 1.83V88h-.972v-3.192c0-1.216-.476-1.824-1.428-1.824-.56 0-1.006.186-1.338.558-.332.372-.498.886-.498 1.542V88h-.972v-5.844h.972v1.02h.012c.512-.728 1.22-1.092 2.124-1.092zm5.64 5.988c-.904 0-1.668-.28-2.292-.84l.504-.732c.504.464 1.1.696 1.788.696.336 0 .604-.076.804-.228.2-.152.3-.336.3-.552a.558.558 0 0 0-.294-.51c-.196-.116-.538-.258-1.026-.426a.372.372 0 0 1-.072-.024c-.568-.2-1.002-.428-1.302-.684-.3-.256-.45-.628-.45-1.116 0-.448.182-.822.546-1.122.364-.3.826-.45 1.386-.45.744 0 1.412.24 2.004.72l-.504.768c-.464-.4-.98-.6-1.548-.6-.232 0-.44.064-.624.192s-.276.292-.276.492c0 .208.09.376.27.504.18.128.458.264.834.408l.354.132c.172.064.286.108.342.132l.288.126c.136.06.228.104.276.132.048.028.122.074.222.138.1.064.168.12.204.168l.144.192c.06.08.102.158.126.234a2.013 2.013 0 0 1 .084.582c0 .48-.18.878-.54 1.194-.36.316-.876.474-1.548.474zM59.908 88v-5.004h-.72v-.84h.72V80.98c0-.624.142-1.096.426-1.416.284-.32.686-.48 1.206-.48.496 0 .952.124 1.368.372l-.216.84c-.384-.2-.724-.3-1.02-.3-.536 0-.804.356-.804 1.068v1.092h1.656v.84h-1.656V88h-.96zm8.916-3.012c0 .064-.004.148-.012.252l-.012.144h-4.5c.064.544.274.98.63 1.308.356.328.798.492 1.326.492.68 0 1.228-.264 1.644-.792l.684.588c-.568.728-1.356 1.092-2.364 1.092-.84 0-1.534-.278-2.082-.834-.548-.556-.822-1.274-.822-2.154 0-.872.266-1.59.798-2.154.532-.564 1.198-.846 1.998-.846.808 0 1.462.272 1.962.816.5.544.75 1.24.75 2.088zm-2.664-2.004c-.464 0-.862.142-1.194.426-.332.284-.542.674-.63 1.17h3.528c-.08-.488-.268-.876-.564-1.164-.296-.288-.676-.432-1.14-.432zm7.032-.9c.12 0 .2.004.24.012v1.08a4.77 4.77 0 0 0-.384-.024c-.544 0-.976.188-1.296.564-.32.376-.48.864-.48 1.464V88H70.3v-5.844h.972v1.032h.012c.456-.736 1.092-1.104 1.908-1.104zm11.064-2.604h1.116L82.648 88H81.64l-1.968-6.984h-.012L77.656 88h-1.008l-2.724-8.52h1.116l2.1 6.804h.024l1.92-6.804h1.14l1.92 6.828h.012l2.1-6.828zm2.664 1.596a.675.675 0 0 1-.696-.684.675.675 0 0 1 .696-.684.67.67 0 0 1 .492.204.657.657 0 0 1 .204.48.65.65 0 0 1-.204.486.68.68 0 0 1-.492.198zM86.428 88v-5.844h.972V88h-.972zm4.704.072c-.904 0-1.668-.28-2.292-.84l.504-.732c.504.464 1.1.696 1.788.696.336 0 .604-.076.804-.228.2-.152.3-.336.3-.552a.558.558 0 0 0-.294-.51c-.196-.116-.538-.258-1.026-.426a.372.372 0 0 1-.072-.024c-.568-.2-1.002-.428-1.302-.684-.3-.256-.45-.628-.45-1.116 0-.448.182-.822.546-1.122.364-.3.826-.45 1.386-.45.744 0 1.412.24 2.004.72l-.504.768c-.464-.4-.98-.6-1.548-.6-.232 0-.44.064-.624.192s-.276.292-.276.492c0 .208.09.376.27.504.18.128.458.264.834.408l.354.132c.172.064.286.108.342.132l.288.126c.136.06.228.104.276.132.048.028.122.074.222.138.1.064.168.12.204.168l.144.192c.06.08.102.158.126.234a2.013 2.013 0 0 1 .084.582c0 .48-.18.878-.54 1.194-.36.316-.876.474-1.548.474zm8.652-3.084c0 .064-.004.148-.012.252l-.012.144h-4.5c.064.544.274.98.63 1.308.356.328.798.492 1.326.492.68 0 1.228-.264 1.644-.792l.684.588c-.568.728-1.356 1.092-2.364 1.092-.84 0-1.534-.278-2.082-.834-.548-.556-.822-1.274-.822-2.154 0-.872.266-1.59.798-2.154.532-.564 1.198-.846 1.998-.846.808 0 1.462.272 1.962.816.5.544.75 1.24.75 2.088zm-2.664-2.004c-.464 0-.862.142-1.194.426-.332.284-.542.674-.63 1.17h3.528c-.08-.488-.268-.876-.564-1.164-.296-.288-.676-.432-1.14-.432zM104.776 88v-8.52h1.056V88h-1.056zm7.464-4.476c.52.112.944.352 1.272.72.328.368.492.852.492 1.452 0 .696-.24 1.254-.72 1.674-.48.42-1.188.63-2.124.63h-3.108v-8.52h2.784c.864 0 1.538.17 2.022.51.484.34.726.862.726 1.566 0 .432-.114.826-.342 1.182-.228.356-.562.61-1.002.762v.024zm-3.144-3.084v2.7h1.728c.464 0 .862-.112 1.194-.336.332-.224.498-.572.498-1.044 0-.88-.632-1.32-1.896-1.32h-1.524zm1.776 6.6c.624 0 1.12-.122 1.488-.366.368-.244.552-.602.552-1.074 0-.48-.172-.854-.516-1.122-.344-.268-.836-.402-1.476-.402h-1.824v2.964h1.776zm10.44.96l-.756-2.076h-3.804L115.996 88h-1.104l3.228-8.52h1.044l3.252 8.52h-1.104zm-4.224-2.988h3.132l-1.56-4.26h-.024l-1.548 4.26zm12.6-5.532h1.044V88h-1.068l-4.776-6.72h-.024V88h-1.044v-8.52h1.032l4.812 6.792h.024V79.48z" fill="#37517E"/></g><g transform="translate(272 26)"><use fill="#2E4369" xlink:href="#q"/><rect stroke="#2E4369" x=".5" y=".5" width="95" height="95" rx="3"/></g><g transform="translate(304 42)"><mask id="s" fill="#fff"><use xlink:href="#r"/></mask><g mask="url(#s)"><g transform="translate(-8)"><mask id="u" fill="#fff"><use xlink:href="#t"/></mask><use fill="#00207F" xlink:href="#t"/><g mask="url(#u)" transform="matrix(-1 0 0 1 48 0)"><use fill="#DF321D" xlink:href="#v"/><path stroke="#FFF" d="M26.901 16l23.884 15.922-2.721 2.721L24 18.601-.064 34.643l-2.72-2.72 23.91-15.94L-.768.06l2.716-2.716 22.063 16.047L48.064-2.643l2.72 2.72L26.902 16z"/></g><g mask="url(#u)"><use fill="#D10D24" xlink:href="#w"/><path stroke="#FFF" d="M26.5 13.5h22v5h-22v14h-5v-14h-22v-5h22v-14h5v14z"/></g></g></g></g><path d="M310.82 100.096c-1.675 0-3.048-.52-4.12-1.56s-1.608-2.44-1.608-4.2c0-1.707.515-3.104 1.544-4.192 1.03-1.088 2.403-1.632 4.12-1.632a6.35 6.35 0 0 1 2.4.472 5.624 5.624 0 0 1 2.032 1.4l-1.36 1.184c-.843-.821-1.872-1.232-3.088-1.232-1.045 0-1.912.365-2.6 1.096-.688.73-1.032 1.699-1.032 2.904 0 1.152.339 2.107 1.016 2.864.677.757 1.576 1.136 2.696 1.136.939 0 1.781-.25 2.528-.752v-1.92h-2.784v-1.728h4.704v4.736c-.523.437-1.179.784-1.968 1.04a7.988 7.988 0 0 1-2.48.384zM323.716 94c.683.17 1.23.504 1.64 1 .41.496.616 1.123.616 1.88 0 .939-.317 1.693-.952 2.264-.635.57-1.56.856-2.776.856h-4.496V88.64h3.952c1.184 0 2.096.232 2.736.696.64.464.96 1.155.96 2.072a2.91 2.91 0 0 1-.424 1.544c-.283.464-.701.808-1.256 1.032V94zm-4.032-3.632v2.976h1.84c.533 0 .984-.125 1.352-.376.368-.25.552-.627.552-1.128 0-.992-.699-1.483-2.096-1.472h-1.648zm1.984 7.904c.704-.01 1.261-.15 1.672-.416.41-.267.616-.661.616-1.184 0-.512-.195-.917-.584-1.216-.39-.299-.947-.448-1.672-.448h-2.016v3.264h1.984zm6.448 1.728V88.64h4.112c1.301 0 2.275.333 2.92 1s.968 1.56.968 2.68c0 1.195-.368 2.099-1.104 2.712-.736.613-1.739.92-3.008.92h-1.952V100h-1.936zm1.936-5.792h1.76c.768 0 1.344-.173 1.728-.52.384-.347.576-.813.576-1.4 0-.608-.187-1.08-.56-1.416-.373-.336-.907-.504-1.6-.504h-1.904v3.84z" fill="#FFF"/></g></svg>