<svg xmlns="http://www.w3.org/2000/svg" width="24" height="24" viewBox="0 0 24 24">
    <g fill="#00B9FF" fill-rule="nonzero">
        <path d="M5 17.497L17.995 4.5l1.414 1.414L6.414 18.911z"/>
        <path d="M18.79 13.007a1 1 0 0 1-.71-1.71l2.74-2.74a3.86 3.86 0 0 0 0-5.43 4 4 0 0 0-5.43 0l-2.74 2.74a1 1 0 0 1-1.41-1.41l2.7-2.74a5.862 5.862 0 0 1 8.29 8.29l-2.74 2.74a1 1 0 0 1-.7.26zM5.871 23.98a5.84 5.84 0 0 1-4.13-10l2.74-2.74a1 1 0 0 1 1.41 1.41l-2.74 2.78a3.86 3.86 0 0 0 0 5.43 4 4 0 0 0 5.43 0l2.74-2.74a1 1 0 0 1 1.41 1.41l-2.7 2.74a5.8 5.8 0 0 1-4.16 1.71z"/>
    </g>
</svg>
