<svg xmlns="http://www.w3.org/2000/svg" width="28" height="23" viewBox="0 0 28 23">
    <path fill="#00B9FF" fill-rule="evenodd" d="M28 2.682c-1.05.466-2.163.774-3.304.91a5.765 5.765 0 0 0 2.52-3.178 11.497 11.497 0 0 1-3.654 1.4 5.755 5.755 0 0 0-9.8 5.236A16.308 16.308 0 0 1 1.946 1.03a5.753 5.753 0 0 0 1.778 7.672 5.72 5.72 0 0 1-2.604-.714v.07a5.755 5.755 0 0 0 4.606 5.6c-.844.23-1.73.263-2.59.098a5.753 5.753 0 0 0 5.362 3.99A11.518 11.518 0 0 1 1.4 20.238c-.468 0-.935-.027-1.4-.084 7.581 4.896 17.693 2.717 22.588-4.864A16.346 16.346 0 0 0 25.2 6.392V5.65A11.645 11.645 0 0 0 28 2.682"/>
</svg>
